<svg preserveAspectRatio="none" width="100%" height="100%" overflow="visible" style="display: block;" viewBox="0 0 127.638 136.05" fill="none" xmlns="http://www.w3.org/2000/svg">
<path id="Vector" d="M26.8136 25.7555C28.5577 19.2185 29.7904 13.3189 33.7086 7.58366C35.7832 4.54697 38.536 0.902884 42.3569 0.0934744C46.8253 -0.853082 49.4192 5.63285 51.298 8.54637C54.1948 12.9512 54.0357 18.3225 55.0211 23.272C55.9541 23.6483 57.4849 24.0154 58.4763 24.2638C63.2407 25.4577 67.6788 27.2367 72.0316 29.5051C73.1256 30.0752 74.4568 30.8412 75.6043 31.2722L77.3993 30.8331C78.5553 31.8715 83.4997 35.3013 83.7073 36.5673L83.3794 36.6887C87.7985 41.2606 93.7778 49.8138 93.7736 56.2923C95.4815 56.2341 97.831 55.8774 99.623 55.7458C105.701 55.2991 112.647 54.5585 118.717 54.9653C118.704 54.0172 118.649 53.5485 119.365 52.8585C120.933 51.3486 123.759 51.5264 125.738 51.7634C126.426 52.5481 127.069 53.2357 127.618 54.1259C127.731 56.3428 127.369 58.6321 125.872 60.3854C125.829 60.807 125.384 61.6192 125.156 61.9819C122.223 66.6652 117.869 70.9019 113.591 74.3538C111.754 75.8363 107.346 79.2076 105.35 80.0682C99.6347 79.1498 95.8122 78.1358 92.0691 73.5504C90.4702 71.8619 89.9593 66.1489 86.5468 68.6935C85.5705 69.4216 85.5966 70.0549 85.9292 71.129C87.8466 77.3229 93.7249 81.8284 99.8303 83.5453C95.1665 85.9685 90.8464 88.3507 85.8842 90.2204C84.5582 90.7199 82.8643 91.5396 81.5125 91.8475L81.5199 105.295C81.6618 105.311 81.8049 105.333 81.9398 105.382C86.9092 107.172 93.5356 110.16 96.0158 115.121C96.9259 116.941 97.0311 118.8 96.3738 120.723C95.047 124.605 91.1507 127.278 87.6263 128.991C69.4594 137.823 39.4131 138.039 20.501 131.47C15.2007 129.63 8.75278 126.786 6.19014 121.451C5.35656 119.716 5.16999 117.97 5.83671 116.14C8.05059 110.065 15.4787 107.616 20.7845 105.096L20.8101 94.0969C13.9626 90.9392 6.35364 82.6575 3.18983 75.89C-0.645888 67.6258 -1.03827 58.1764 2.09912 49.6229C5.27787 40.9857 12.1881 33.7831 20.0653 29.1592C22.2206 27.8941 24.5462 26.8026 26.8136 25.7555Z" fill="var(--fill-0, #E46948)"/>
</svg>
