<svg preserveAspectRatio="none" width="100%" height="100%" overflow="visible" style="display: block;" viewBox="0 0 25.9488 14.8735" fill="none" xmlns="http://www.w3.org/2000/svg">
<path id="Vector" d="M0.474503 0C1.57714 0.423639 3.38036 0.883029 4.56971 1.26581C7.17016 2.10287 9.75077 2.95643 12.4007 3.61647C11.9178 4.65638 11.4511 5.57678 11.3369 6.73664C11.2163 7.97151 11.5902 9.20405 12.3768 10.164C13.1687 11.1123 14.3107 11.7001 15.5428 11.7939C16.8161 11.8857 18.0734 11.4657 19.0358 10.6273C20.4863 9.37669 20.5811 8.0223 20.7105 6.28819C21.7186 6.58035 25.3817 7.54306 25.9488 8.12051L25.8369 8.36786C24.6418 10.1523 23.0862 11.6666 21.2701 12.8135C17.7345 15.0165 13.4959 15.3129 9.51238 14.361C2.15671 12.6032 -1.3458 7.4269 0.474503 0Z" fill="var(--fill-0, #FEFEFE)"/>
</svg>
