<svg preserveAspectRatio="none" width="100%" height="100%" overflow="visible" style="display: block;" viewBox="0 0 60.3899 6.14613" fill="none" xmlns="http://www.w3.org/2000/svg">
<path id="Vector" d="M60.2069 2.74381C60.2027 2.12331 60.0815 0.37913 60.3583 0C60.3843 1.05976 60.4099 2.03414 60.3665 3.09332C59.7277 3.90761 59.9256 4.92533 59.792 5.3643C59.609 5.96583 53.7062 5.95606 53.263 5.8523C52.3561 5.65763 48.5313 5.7303 47.4491 5.76153C43.1854 5.06047 38.5166 5.98159 34.2259 6.12664C30.2463 6.26119 25.9606 5.65266 22.013 5.72008C16.9452 5.80677 11.9074 6.43339 6.78924 5.95824C6.07288 5.89184 4.04163 6.12504 3.60703 6.0242C2.79593 5.34095 0.974313 5.33949 0 5.65135L0.0283214 2.63976C2.36469 2.62779 5.12003 2.8248 7.28559 2.75942C10.2643 3.20495 18.6677 3.08076 21.7977 3.06018L42.9378 2.96504C46.34 2.92943 49.76 2.98518 53.1633 2.97379C55.5628 2.96562 57.8164 3.06602 60.2069 2.74381Z" fill="var(--fill-0, #A34C34)"/>
</svg>
