<svg preserveAspectRatio="none" width="100%" height="100%" overflow="visible" style="display: block;" viewBox="0 0 60.7074 14.4196" fill="none" xmlns="http://www.w3.org/2000/svg">
<path id="Vector" d="M60.4908 2.74381C60.4866 2.12331 60.3654 0.37913 60.6422 0C60.6682 1.05976 60.6937 2.03414 60.6504 3.09332C60.6842 4.58663 60.8701 13.5343 60.3158 14.3175C60.2883 13.3867 60.6952 11.3428 60.2418 10.7346C55.3915 11.2376 46.7723 10.9517 41.7078 10.9593L7.84099 11.101C5.36696 11.1171 2.89585 11.0883 0.422839 11.0228C0.372036 11.0711 0.321233 11.1194 0.270284 11.1676L0.239481 14.3664L0.156268 14.4196C-0.0249015 13.3025 0.0229819 10.9889 0.0165585 9.77508C-0.0103029 7.09811 -0.00446301 4.421 0.0339314 1.74418C1.53248 3.1225 4.99338 1.66917 7.56946 2.75942C10.5482 3.20495 18.9516 3.08076 22.0815 3.06018L43.2216 2.96504C46.6239 2.92943 50.0439 2.98518 53.4471 2.97379C55.8467 2.96562 58.1003 3.06602 60.4908 2.74381Z" fill="var(--fill-0, #652E21)"/>
</svg>
