<svg preserveAspectRatio="none" width="100%" height="100%" overflow="visible" style="display: block;" viewBox="0 0 91.3627 30.9545" fill="none" xmlns="http://www.w3.org/2000/svg">
<path id="Vector" d="M76.0872 0.198901C76.2291 0.2151 76.3722 0.237719 76.5071 0.286314C81.4765 2.07631 88.1029 5.06397 90.5831 10.0252C91.4932 11.8457 91.5984 13.7039 90.941 15.6277C89.6143 19.5097 85.7179 22.182 82.1935 23.8956C64.0267 32.7272 33.9804 32.9432 15.0683 26.3747C9.76797 24.5339 3.32005 21.6905 0.757403 16.3551C-0.0761787 14.6199 -0.262749 12.8745 0.403971 11.0447C2.61785 4.96956 10.0459 2.51995 15.3518 0C15.3657 2.56956 15.3235 5.40662 15.4362 7.9543C16.9347 9.33262 20.3956 7.87928 22.9717 8.96954C25.9504 9.41507 34.3538 9.29088 37.4838 9.2703L58.6239 9.17516C62.0261 9.13955 65.4461 9.19529 68.8494 9.18391C71.2489 9.17574 73.5025 9.27614 75.8931 8.95392C75.8888 8.33342 75.7677 6.58925 76.0445 6.21012C76.1212 4.33855 76.0757 2.09981 76.0872 0.198901Z" fill="var(--fill-0, #040101)"/>
</svg>
